<mxfile host="app.diagrams.net" modified="2024-04-25T13:13:21.324Z" agent="Mozilla/5.0 (Macintosh; Intel Mac OS X 10_15_7) AppleWebKit/537.36 (KHTML, like Gecko) Chrome/124.0.0.0 Safari/537.36" etag="3ByufgrNA7qvmkwL1na2" version="24.3.0" type="device">
  <diagram name="Page-1" id="I_4k36ukl9uxdQym2-pP">
    <mxGraphModel dx="925" dy="536" grid="1" gridSize="10" guides="1" tooltips="1" connect="1" arrows="1" fold="1" page="1" pageScale="1" pageWidth="827" pageHeight="1169" math="0" shadow="0">
      <root>
        <mxCell id="0" />
        <mxCell id="1" parent="0" />
        <mxCell id="5Q3FYCVqR7DnrEfHLP5Y-40" value="" style="rounded=0;whiteSpace=wrap;html=1;" vertex="1" parent="1">
          <mxGeometry y="50" width="1130" height="530" as="geometry" />
        </mxCell>
        <mxCell id="naj5Z1TmneexL7RIZc3C-44" value="" style="group" parent="1" vertex="1" connectable="0">
          <mxGeometry x="590" y="90" width="450" height="260" as="geometry" />
        </mxCell>
        <mxCell id="naj5Z1TmneexL7RIZc3C-18" value="&lt;p style=&quot;margin:0px;margin-top:6px;text-align:center;&quot;&gt;&amp;lt;&amp;lt;subsystem&amp;gt;&amp;gt;&lt;b&gt;&amp;nbsp;Web Page&lt;/b&gt;&lt;/p&gt;&lt;hr size=&quot;1&quot; style=&quot;border-style:solid;&quot;&gt;&lt;p style=&quot;margin:0px;margin-left:8px;&quot;&gt;&lt;br&gt;&lt;/p&gt;" style="align=left;overflow=fill;html=1;dropTarget=0;whiteSpace=wrap;" parent="naj5Z1TmneexL7RIZc3C-44" vertex="1">
          <mxGeometry width="450" height="260" as="geometry" />
        </mxCell>
        <mxCell id="naj5Z1TmneexL7RIZc3C-19" value="" style="shape=component;jettyWidth=8;jettyHeight=4;" parent="naj5Z1TmneexL7RIZc3C-18" vertex="1">
          <mxGeometry x="1" width="20" height="20" relative="1" as="geometry">
            <mxPoint x="-24" y="4" as="offset" />
          </mxGeometry>
        </mxCell>
        <mxCell id="naj5Z1TmneexL7RIZc3C-20" value="&lt;b&gt;:Champions&lt;/b&gt;" style="html=1;dropTarget=0;whiteSpace=wrap;" parent="naj5Z1TmneexL7RIZc3C-44" vertex="1">
          <mxGeometry x="70" y="50" width="140" height="70" as="geometry" />
        </mxCell>
        <mxCell id="naj5Z1TmneexL7RIZc3C-21" value="" style="shape=module;jettyWidth=8;jettyHeight=4;" parent="naj5Z1TmneexL7RIZc3C-20" vertex="1">
          <mxGeometry x="1" width="20" height="20" relative="1" as="geometry">
            <mxPoint x="-27" y="7" as="offset" />
          </mxGeometry>
        </mxCell>
        <mxCell id="naj5Z1TmneexL7RIZc3C-24" value="&lt;b&gt;:Wiki&lt;/b&gt;" style="html=1;dropTarget=0;whiteSpace=wrap;" parent="naj5Z1TmneexL7RIZc3C-44" vertex="1">
          <mxGeometry x="70" y="150" width="140" height="70" as="geometry" />
        </mxCell>
        <mxCell id="naj5Z1TmneexL7RIZc3C-25" value="" style="shape=module;jettyWidth=8;jettyHeight=4;" parent="naj5Z1TmneexL7RIZc3C-24" vertex="1">
          <mxGeometry x="1" width="20" height="20" relative="1" as="geometry">
            <mxPoint x="-27" y="7" as="offset" />
          </mxGeometry>
        </mxCell>
        <mxCell id="naj5Z1TmneexL7RIZc3C-26" value="&lt;b&gt;:Download&lt;/b&gt;" style="html=1;dropTarget=0;whiteSpace=wrap;" parent="naj5Z1TmneexL7RIZc3C-44" vertex="1">
          <mxGeometry x="240" y="150" width="140" height="70" as="geometry" />
        </mxCell>
        <mxCell id="naj5Z1TmneexL7RIZc3C-27" value="" style="shape=module;jettyWidth=8;jettyHeight=4;" parent="naj5Z1TmneexL7RIZc3C-26" vertex="1">
          <mxGeometry x="1" width="20" height="20" relative="1" as="geometry">
            <mxPoint x="-27" y="7" as="offset" />
          </mxGeometry>
        </mxCell>
        <mxCell id="naj5Z1TmneexL7RIZc3C-30" value="&lt;b&gt;:Scoreboard&lt;/b&gt;" style="html=1;dropTarget=0;whiteSpace=wrap;" parent="naj5Z1TmneexL7RIZc3C-44" vertex="1">
          <mxGeometry x="240" y="50" width="140" height="70" as="geometry" />
        </mxCell>
        <mxCell id="naj5Z1TmneexL7RIZc3C-31" value="" style="shape=module;jettyWidth=8;jettyHeight=4;" parent="naj5Z1TmneexL7RIZc3C-30" vertex="1">
          <mxGeometry x="1" width="20" height="20" relative="1" as="geometry">
            <mxPoint x="-27" y="7" as="offset" />
          </mxGeometry>
        </mxCell>
        <mxCell id="5Q3FYCVqR7DnrEfHLP5Y-1" value="" style="html=1;rounded=0;" vertex="1" parent="naj5Z1TmneexL7RIZc3C-44">
          <mxGeometry x="370" y="80" width="20" height="20" as="geometry" />
        </mxCell>
        <mxCell id="5Q3FYCVqR7DnrEfHLP5Y-2" value="" style="endArrow=none;html=1;rounded=0;align=center;verticalAlign=top;endFill=0;labelBackgroundColor=none;endSize=2;" edge="1" source="5Q3FYCVqR7DnrEfHLP5Y-1" target="5Q3FYCVqR7DnrEfHLP5Y-3" parent="naj5Z1TmneexL7RIZc3C-44">
          <mxGeometry relative="1" as="geometry" />
        </mxCell>
        <mxCell id="5Q3FYCVqR7DnrEfHLP5Y-3" value="" style="ellipse;html=1;fontSize=11;align=center;fillColor=none;points=[];aspect=fixed;resizable=0;verticalAlign=bottom;labelPosition=center;verticalLabelPosition=top;flipH=1;" vertex="1" parent="naj5Z1TmneexL7RIZc3C-44">
          <mxGeometry x="410" y="86" width="8" height="8" as="geometry" />
        </mxCell>
        <mxCell id="naj5Z1TmneexL7RIZc3C-45" value="" style="group" parent="1" vertex="1" connectable="0">
          <mxGeometry x="705" y="390" width="295" height="140" as="geometry" />
        </mxCell>
        <mxCell id="naj5Z1TmneexL7RIZc3C-34" value="&lt;p style=&quot;margin:0px;margin-top:6px;text-align:center;&quot;&gt;&amp;lt;&amp;lt;subsystem&amp;gt;&amp;gt;&lt;b&gt;&amp;nbsp;Backend&lt;/b&gt;&lt;/p&gt;&lt;hr size=&quot;1&quot; style=&quot;border-style:solid;&quot;&gt;&lt;p style=&quot;margin:0px;margin-left:8px;&quot;&gt;&lt;br&gt;&lt;/p&gt;" style="align=left;overflow=fill;html=1;dropTarget=0;whiteSpace=wrap;" parent="naj5Z1TmneexL7RIZc3C-45" vertex="1">
          <mxGeometry x="-30" width="270" height="140" as="geometry" />
        </mxCell>
        <mxCell id="naj5Z1TmneexL7RIZc3C-35" value="" style="shape=component;jettyWidth=8;jettyHeight=4;" parent="naj5Z1TmneexL7RIZc3C-34" vertex="1">
          <mxGeometry x="1" width="20" height="20" relative="1" as="geometry">
            <mxPoint x="-24" y="4" as="offset" />
          </mxGeometry>
        </mxCell>
        <mxCell id="naj5Z1TmneexL7RIZc3C-36" value="&lt;b&gt;:Data&lt;/b&gt;" style="html=1;dropTarget=0;whiteSpace=wrap;container=0;" parent="naj5Z1TmneexL7RIZc3C-45" vertex="1">
          <mxGeometry x="30" y="50" width="140" height="70" as="geometry" />
        </mxCell>
        <mxCell id="5Q3FYCVqR7DnrEfHLP5Y-8" value="" style="shape=component;jettyWidth=8;jettyHeight=4;" vertex="1" parent="naj5Z1TmneexL7RIZc3C-45">
          <mxGeometry x="143.99999999999977" y="55.5" width="20" height="20" as="geometry" />
        </mxCell>
        <mxCell id="5Q3FYCVqR7DnrEfHLP5Y-12" value="" style="html=1;rounded=0;" vertex="1" parent="naj5Z1TmneexL7RIZc3C-45">
          <mxGeometry x="164" y="80" width="16.67" height="20" as="geometry" />
        </mxCell>
        <mxCell id="5Q3FYCVqR7DnrEfHLP5Y-13" value="" style="endArrow=none;html=1;rounded=0;align=center;verticalAlign=top;endFill=0;labelBackgroundColor=none;endSize=2;" edge="1" source="5Q3FYCVqR7DnrEfHLP5Y-12" target="5Q3FYCVqR7DnrEfHLP5Y-14" parent="naj5Z1TmneexL7RIZc3C-45">
          <mxGeometry relative="1" as="geometry" />
        </mxCell>
        <mxCell id="5Q3FYCVqR7DnrEfHLP5Y-14" value="" style="shape=requiredInterface;html=1;fontSize=11;align=center;fillColor=none;points=[];aspect=fixed;resizable=0;verticalAlign=bottom;labelPosition=center;verticalLabelPosition=top;flipH=1;" vertex="1" parent="naj5Z1TmneexL7RIZc3C-45">
          <mxGeometry x="195" y="85" width="5" height="10" as="geometry" />
        </mxCell>
        <mxCell id="5Q3FYCVqR7DnrEfHLP5Y-19" style="edgeStyle=orthogonalEdgeStyle;rounded=0;orthogonalLoop=1;jettySize=auto;html=1;endArrow=none;endFill=0;" edge="1" parent="naj5Z1TmneexL7RIZc3C-45" source="5Q3FYCVqR7DnrEfHLP5Y-15" target="5Q3FYCVqR7DnrEfHLP5Y-14">
          <mxGeometry relative="1" as="geometry" />
        </mxCell>
        <mxCell id="5Q3FYCVqR7DnrEfHLP5Y-15" value="" style="html=1;rounded=0;" vertex="1" parent="naj5Z1TmneexL7RIZc3C-45">
          <mxGeometry x="235" y="80" width="20" height="20" as="geometry" />
        </mxCell>
        <mxCell id="5Q3FYCVqR7DnrEfHLP5Y-16" value="" style="endArrow=none;html=1;rounded=0;align=center;verticalAlign=top;endFill=0;labelBackgroundColor=none;endSize=2;" edge="1" source="5Q3FYCVqR7DnrEfHLP5Y-15" target="5Q3FYCVqR7DnrEfHLP5Y-17" parent="naj5Z1TmneexL7RIZc3C-45">
          <mxGeometry relative="1" as="geometry" />
        </mxCell>
        <mxCell id="5Q3FYCVqR7DnrEfHLP5Y-17" value="Aquire Scores" style="shape=requiredInterface;html=1;fontSize=11;align=center;fillColor=none;points=[];aspect=fixed;resizable=0;verticalAlign=bottom;labelPosition=center;verticalLabelPosition=top;flipH=1;" vertex="1" parent="naj5Z1TmneexL7RIZc3C-45">
          <mxGeometry x="285" y="85" width="5" height="10" as="geometry" />
        </mxCell>
        <mxCell id="5Q3FYCVqR7DnrEfHLP5Y-21" value="" style="html=1;rounded=0;" vertex="1" parent="naj5Z1TmneexL7RIZc3C-45">
          <mxGeometry x="15" y="80" width="20" height="20" as="geometry" />
        </mxCell>
        <mxCell id="3pVS00WtkXnSSmuxZhoW-2" value="" style="group" parent="1" vertex="1" connectable="0">
          <mxGeometry x="90" y="90" width="490" height="440" as="geometry" />
        </mxCell>
        <mxCell id="naj5Z1TmneexL7RIZc3C-4" value="" style="shape=component;jettyWidth=8;jettyHeight=4;" parent="3pVS00WtkXnSSmuxZhoW-2" vertex="1">
          <mxGeometry x="416" y="4" width="20" height="20" as="geometry">
            <mxPoint x="-24" y="4" as="offset" />
          </mxGeometry>
        </mxCell>
        <mxCell id="naj5Z1TmneexL7RIZc3C-3" value="&lt;p style=&quot;margin:0px;margin-top:6px;text-align:center;&quot;&gt;&amp;lt;&amp;lt;subsystem&amp;gt;&amp;gt;&lt;b&gt; Game&lt;/b&gt;&lt;/p&gt;&lt;hr size=&quot;1&quot; style=&quot;border-style:solid;&quot;&gt;&lt;p style=&quot;margin:0px;margin-left:8px;&quot;&gt;&lt;br&gt;&lt;/p&gt;" style="align=left;overflow=fill;html=1;dropTarget=0;whiteSpace=wrap;container=0;" parent="3pVS00WtkXnSSmuxZhoW-2" vertex="1">
          <mxGeometry width="440" height="440" as="geometry" />
        </mxCell>
        <mxCell id="naj5Z1TmneexL7RIZc3C-5" value="&lt;b&gt;:PostProcessing&lt;/b&gt;" style="html=1;dropTarget=0;whiteSpace=wrap;" parent="3pVS00WtkXnSSmuxZhoW-2" vertex="1">
          <mxGeometry x="65" y="85" width="140" height="70" as="geometry" />
        </mxCell>
        <mxCell id="naj5Z1TmneexL7RIZc3C-6" value="" style="shape=module;jettyWidth=8;jettyHeight=4;" parent="naj5Z1TmneexL7RIZc3C-5" vertex="1">
          <mxGeometry x="1" width="20" height="20" relative="1" as="geometry">
            <mxPoint x="-27" y="7" as="offset" />
          </mxGeometry>
        </mxCell>
        <mxCell id="naj5Z1TmneexL7RIZc3C-7" value="&lt;b&gt;:AudioPlayer&lt;/b&gt;" style="html=1;dropTarget=0;whiteSpace=wrap;" parent="3pVS00WtkXnSSmuxZhoW-2" vertex="1">
          <mxGeometry x="65" y="285" width="140" height="70" as="geometry" />
        </mxCell>
        <mxCell id="naj5Z1TmneexL7RIZc3C-8" value="" style="shape=module;jettyWidth=8;jettyHeight=4;" parent="naj5Z1TmneexL7RIZc3C-7" vertex="1">
          <mxGeometry x="1" width="20" height="20" relative="1" as="geometry">
            <mxPoint x="-27" y="7" as="offset" />
          </mxGeometry>
        </mxCell>
        <mxCell id="naj5Z1TmneexL7RIZc3C-9" value="&lt;b&gt;:InputController&lt;/b&gt;" style="html=1;dropTarget=0;whiteSpace=wrap;" parent="3pVS00WtkXnSSmuxZhoW-2" vertex="1">
          <mxGeometry x="65" y="185" width="140" height="70" as="geometry" />
        </mxCell>
        <mxCell id="naj5Z1TmneexL7RIZc3C-10" value="" style="shape=module;jettyWidth=8;jettyHeight=4;" parent="naj5Z1TmneexL7RIZc3C-9" vertex="1">
          <mxGeometry x="1" width="20" height="20" relative="1" as="geometry">
            <mxPoint x="-27" y="7" as="offset" />
          </mxGeometry>
        </mxCell>
        <mxCell id="naj5Z1TmneexL7RIZc3C-11" value="&lt;b&gt;:EntitySystem&lt;/b&gt;" style="html=1;dropTarget=0;whiteSpace=wrap;" parent="3pVS00WtkXnSSmuxZhoW-2" vertex="1">
          <mxGeometry x="235" y="185" width="140" height="70" as="geometry" />
        </mxCell>
        <mxCell id="naj5Z1TmneexL7RIZc3C-12" value="" style="shape=module;jettyWidth=8;jettyHeight=4;" parent="naj5Z1TmneexL7RIZc3C-11" vertex="1">
          <mxGeometry x="1" width="20" height="20" relative="1" as="geometry">
            <mxPoint x="-27" y="7" as="offset" />
          </mxGeometry>
        </mxCell>
        <mxCell id="naj5Z1TmneexL7RIZc3C-13" value="&lt;b&gt;:GameLoop&lt;/b&gt;" style="html=1;dropTarget=0;whiteSpace=wrap;" parent="3pVS00WtkXnSSmuxZhoW-2" vertex="1">
          <mxGeometry x="235" y="285" width="140" height="70" as="geometry" />
        </mxCell>
        <mxCell id="naj5Z1TmneexL7RIZc3C-14" value="" style="shape=module;jettyWidth=8;jettyHeight=4;" parent="naj5Z1TmneexL7RIZc3C-13" vertex="1">
          <mxGeometry x="1" width="20" height="20" relative="1" as="geometry">
            <mxPoint x="-27" y="7" as="offset" />
          </mxGeometry>
        </mxCell>
        <mxCell id="naj5Z1TmneexL7RIZc3C-15" value="&lt;b&gt;:PhysicsEngine&lt;/b&gt;" style="html=1;dropTarget=0;whiteSpace=wrap;" parent="3pVS00WtkXnSSmuxZhoW-2" vertex="1">
          <mxGeometry x="235" y="85" width="140" height="70" as="geometry" />
        </mxCell>
        <mxCell id="naj5Z1TmneexL7RIZc3C-16" value="" style="shape=module;jettyWidth=8;jettyHeight=4;" parent="naj5Z1TmneexL7RIZc3C-15" vertex="1">
          <mxGeometry x="1" width="20" height="20" relative="1" as="geometry">
            <mxPoint x="-27" y="7" as="offset" />
          </mxGeometry>
        </mxCell>
        <mxCell id="3pVS00WtkXnSSmuxZhoW-1" value="" style="shape=module;jettyWidth=8;jettyHeight=4;" parent="3pVS00WtkXnSSmuxZhoW-2" vertex="1">
          <mxGeometry x="416" y="4" width="20" height="20" as="geometry" />
        </mxCell>
        <mxCell id="3pVS00WtkXnSSmuxZhoW-9" value="" style="html=1;rounded=0;" parent="3pVS00WtkXnSSmuxZhoW-2" vertex="1">
          <mxGeometry x="50" y="205" width="30" height="30" as="geometry" />
        </mxCell>
        <mxCell id="3pVS00WtkXnSSmuxZhoW-10" value="" style="endArrow=none;html=1;rounded=0;align=center;verticalAlign=top;endFill=0;labelBackgroundColor=none;endSize=2;" parent="3pVS00WtkXnSSmuxZhoW-2" source="3pVS00WtkXnSSmuxZhoW-9" target="3pVS00WtkXnSSmuxZhoW-11" edge="1">
          <mxGeometry relative="1" as="geometry" />
        </mxCell>
        <mxCell id="3pVS00WtkXnSSmuxZhoW-11" value="" style="ellipse;html=1;fontSize=11;align=center;fillColor=none;points=[];aspect=fixed;resizable=0;verticalAlign=bottom;labelPosition=center;verticalLabelPosition=top;flipH=1;" parent="3pVS00WtkXnSSmuxZhoW-2" vertex="1">
          <mxGeometry x="30" y="216" width="8" height="8" as="geometry" />
        </mxCell>
        <mxCell id="5Q3FYCVqR7DnrEfHLP5Y-31" value="" style="html=1;rounded=0;" vertex="1" parent="3pVS00WtkXnSSmuxZhoW-2">
          <mxGeometry x="366" y="320" width="20" height="20" as="geometry" />
        </mxCell>
        <mxCell id="5Q3FYCVqR7DnrEfHLP5Y-32" value="" style="endArrow=none;html=1;rounded=0;align=center;verticalAlign=top;endFill=0;labelBackgroundColor=none;endSize=2;" edge="1" source="5Q3FYCVqR7DnrEfHLP5Y-31" target="5Q3FYCVqR7DnrEfHLP5Y-33" parent="3pVS00WtkXnSSmuxZhoW-2">
          <mxGeometry relative="1" as="geometry" />
        </mxCell>
        <mxCell id="5Q3FYCVqR7DnrEfHLP5Y-38" style="edgeStyle=orthogonalEdgeStyle;rounded=0;orthogonalLoop=1;jettySize=auto;html=1;entryX=0;entryY=0.5;entryDx=0;entryDy=0;endArrow=none;endFill=0;" edge="1" parent="3pVS00WtkXnSSmuxZhoW-2" source="5Q3FYCVqR7DnrEfHLP5Y-33" target="5Q3FYCVqR7DnrEfHLP5Y-34">
          <mxGeometry relative="1" as="geometry" />
        </mxCell>
        <mxCell id="5Q3FYCVqR7DnrEfHLP5Y-33" value="" style="ellipse;html=1;fontSize=11;align=center;fillColor=none;points=[];aspect=fixed;resizable=0;verticalAlign=bottom;labelPosition=center;verticalLabelPosition=top;flipH=1;" vertex="1" parent="3pVS00WtkXnSSmuxZhoW-2">
          <mxGeometry x="400" y="326" width="8" height="8" as="geometry" />
        </mxCell>
        <mxCell id="5Q3FYCVqR7DnrEfHLP5Y-34" value="" style="html=1;rounded=0;" vertex="1" parent="3pVS00WtkXnSSmuxZhoW-2">
          <mxGeometry x="430" y="320" width="20" height="20" as="geometry" />
        </mxCell>
        <mxCell id="5Q3FYCVqR7DnrEfHLP5Y-35" value="" style="endArrow=none;html=1;rounded=0;align=center;verticalAlign=top;endFill=0;labelBackgroundColor=none;endSize=2;" edge="1" source="5Q3FYCVqR7DnrEfHLP5Y-34" target="5Q3FYCVqR7DnrEfHLP5Y-36" parent="3pVS00WtkXnSSmuxZhoW-2">
          <mxGeometry relative="1" as="geometry" />
        </mxCell>
        <mxCell id="5Q3FYCVqR7DnrEfHLP5Y-36" value="" style="ellipse;html=1;fontSize=11;align=center;fillColor=none;points=[];aspect=fixed;resizable=0;verticalAlign=bottom;labelPosition=center;verticalLabelPosition=top;flipH=1;" vertex="1" parent="3pVS00WtkXnSSmuxZhoW-2">
          <mxGeometry x="470" y="326" width="8" height="8" as="geometry" />
        </mxCell>
        <mxCell id="3pVS00WtkXnSSmuxZhoW-3" value="" style="html=1;rounded=0;" parent="1" vertex="1">
          <mxGeometry x="70" y="295" width="30" height="30" as="geometry" />
        </mxCell>
        <mxCell id="3pVS00WtkXnSSmuxZhoW-4" value="" style="endArrow=none;html=1;rounded=0;align=center;verticalAlign=top;endFill=0;labelBackgroundColor=none;endSize=2;" parent="1" source="3pVS00WtkXnSSmuxZhoW-3" target="3pVS00WtkXnSSmuxZhoW-5" edge="1">
          <mxGeometry relative="1" as="geometry" />
        </mxCell>
        <mxCell id="3pVS00WtkXnSSmuxZhoW-5" value="User Input" style="ellipse;html=1;fontSize=11;align=center;fillColor=none;points=[];aspect=fixed;resizable=0;verticalAlign=bottom;labelPosition=center;verticalLabelPosition=top;flipH=1;" parent="1" vertex="1">
          <mxGeometry x="30" y="306" width="8" height="8" as="geometry" />
        </mxCell>
        <mxCell id="3pVS00WtkXnSSmuxZhoW-12" style="edgeStyle=orthogonalEdgeStyle;rounded=0;orthogonalLoop=1;jettySize=auto;html=1;entryX=1;entryY=0.5;entryDx=0;entryDy=0;endArrow=none;endFill=0;" parent="1" source="3pVS00WtkXnSSmuxZhoW-11" target="3pVS00WtkXnSSmuxZhoW-3" edge="1">
          <mxGeometry relative="1" as="geometry" />
        </mxCell>
        <mxCell id="5Q3FYCVqR7DnrEfHLP5Y-4" value="" style="html=1;rounded=0;" vertex="1" parent="1">
          <mxGeometry x="1030" y="170" width="20" height="20" as="geometry" />
        </mxCell>
        <mxCell id="5Q3FYCVqR7DnrEfHLP5Y-5" value="" style="endArrow=none;html=1;rounded=0;align=center;verticalAlign=top;endFill=0;labelBackgroundColor=none;endSize=2;" edge="1" source="5Q3FYCVqR7DnrEfHLP5Y-4" target="5Q3FYCVqR7DnrEfHLP5Y-6" parent="1">
          <mxGeometry relative="1" as="geometry" />
        </mxCell>
        <mxCell id="5Q3FYCVqR7DnrEfHLP5Y-6" value="&lt;font style=&quot;font-size: 10px;&quot;&gt;Aquire Scores&lt;/font&gt;" style="ellipse;html=1;fontSize=11;align=center;fillColor=none;points=[];aspect=fixed;resizable=0;verticalAlign=bottom;labelPosition=center;verticalLabelPosition=top;flipH=1;" vertex="1" parent="1">
          <mxGeometry x="1070" y="176" width="8" height="8" as="geometry" />
        </mxCell>
        <mxCell id="5Q3FYCVqR7DnrEfHLP5Y-7" style="edgeStyle=orthogonalEdgeStyle;rounded=0;orthogonalLoop=1;jettySize=auto;html=1;entryX=0.06;entryY=0.556;entryDx=0;entryDy=0;entryPerimeter=0;endArrow=none;endFill=0;" edge="1" parent="1" source="5Q3FYCVqR7DnrEfHLP5Y-4" target="5Q3FYCVqR7DnrEfHLP5Y-3">
          <mxGeometry relative="1" as="geometry" />
        </mxCell>
        <mxCell id="5Q3FYCVqR7DnrEfHLP5Y-20" style="edgeStyle=orthogonalEdgeStyle;rounded=0;orthogonalLoop=1;jettySize=auto;html=1;entryX=-0.043;entryY=0.384;entryDx=0;entryDy=0;entryPerimeter=0;dashed=1;endArrow=open;endFill=0;" edge="1" parent="1" source="5Q3FYCVqR7DnrEfHLP5Y-17" target="5Q3FYCVqR7DnrEfHLP5Y-6">
          <mxGeometry relative="1" as="geometry" />
        </mxCell>
        <mxCell id="5Q3FYCVqR7DnrEfHLP5Y-23" value="" style="shape=requiredInterface;html=1;fontSize=11;align=center;fillColor=none;points=[];aspect=fixed;resizable=0;verticalAlign=bottom;labelPosition=center;verticalLabelPosition=top;flipH=1;direction=west;" vertex="1" parent="1">
          <mxGeometry x="705" y="475" width="5" height="10" as="geometry" />
        </mxCell>
        <mxCell id="5Q3FYCVqR7DnrEfHLP5Y-22" value="" style="endArrow=none;html=1;rounded=0;align=center;verticalAlign=top;endFill=0;labelBackgroundColor=none;endSize=2;" edge="1" source="5Q3FYCVqR7DnrEfHLP5Y-21" target="5Q3FYCVqR7DnrEfHLP5Y-23" parent="1">
          <mxGeometry relative="1" as="geometry" />
        </mxCell>
        <mxCell id="5Q3FYCVqR7DnrEfHLP5Y-27" style="edgeStyle=orthogonalEdgeStyle;rounded=0;orthogonalLoop=1;jettySize=auto;html=1;exitX=1;exitY=0.5;exitDx=0;exitDy=0;endArrow=none;endFill=0;" edge="1" parent="1" source="5Q3FYCVqR7DnrEfHLP5Y-24" target="5Q3FYCVqR7DnrEfHLP5Y-23">
          <mxGeometry relative="1" as="geometry" />
        </mxCell>
        <mxCell id="5Q3FYCVqR7DnrEfHLP5Y-24" value="" style="html=1;rounded=0;" vertex="1" parent="1">
          <mxGeometry x="665" y="470" width="20" height="20" as="geometry" />
        </mxCell>
        <mxCell id="5Q3FYCVqR7DnrEfHLP5Y-25" value="" style="endArrow=none;html=1;rounded=0;align=center;verticalAlign=top;endFill=0;labelBackgroundColor=none;endSize=2;" edge="1" source="5Q3FYCVqR7DnrEfHLP5Y-24" target="5Q3FYCVqR7DnrEfHLP5Y-26" parent="1">
          <mxGeometry relative="1" as="geometry" />
        </mxCell>
        <mxCell id="5Q3FYCVqR7DnrEfHLP5Y-26" value="" style="shape=requiredInterface;html=1;fontSize=11;align=center;fillColor=none;points=[];aspect=fixed;resizable=0;verticalAlign=bottom;labelPosition=center;verticalLabelPosition=top;flipH=1;direction=west;" vertex="1" parent="1">
          <mxGeometry x="650" y="475" width="5" height="10" as="geometry" />
        </mxCell>
        <mxCell id="5Q3FYCVqR7DnrEfHLP5Y-39" style="edgeStyle=orthogonalEdgeStyle;rounded=0;orthogonalLoop=1;jettySize=auto;html=1;entryX=-0.179;entryY=0.523;entryDx=0;entryDy=0;entryPerimeter=0;dashed=1;endArrow=open;endFill=0;" edge="1" parent="1" source="5Q3FYCVqR7DnrEfHLP5Y-26" target="5Q3FYCVqR7DnrEfHLP5Y-36">
          <mxGeometry relative="1" as="geometry">
            <Array as="points">
              <mxPoint x="600" y="480" />
              <mxPoint x="600" y="420" />
            </Array>
          </mxGeometry>
        </mxCell>
      </root>
    </mxGraphModel>
  </diagram>
</mxfile>
